<?xml version="1.0" standalone="no"?>
<!DOCTYPE svg PUBLIC "-//W3C//DTD SVG 20010904//EN"
 "http://www.w3.org/TR/2001/REC-SVG-20010904/DTD/svg10.dtd">
<svg version="1.0" xmlns="http://www.w3.org/2000/svg"
 width="640.000000pt" height="640.000000pt" viewBox="0 0 640.000000 640.000000"
 preserveAspectRatio="xMidYMid meet">
<metadata>
Created by potrace 1.14, written by Peter Selinger 2001-2017
</metadata>
<g transform="translate(0.000000,640.000000) scale(0.100000,-0.100000)"
fill="#000000" stroke="none">
<path d="M1184 5731 c-145 -36 -287 -138 -370 -267 -31 -49 -83 -161 -89 -195
-14 -70 -17 -142 -20 -405 -2 -165 -6 -317 -9 -339 -3 -22 -8 -62 -11 -90 -3
-27 -8 -66 -11 -85 -2 -19 -7 -51 -9 -70 -4 -30 -22 -122 -39 -195 -2 -11 -9
-32 -15 -47 -6 -16 -9 -28 -6 -28 9 0 -58 -179 -96 -257 -45 -91 -115 -190
-168 -238 -86 -77 -210 -137 -306 -148 l-30 -4 0 -161 c0 -89 3 -162 7 -163
44 -5 142 -35 191 -59 153 -74 304 -273 371 -490 10 -30 21 -64 26 -75 10 -24
47 -188 60 -265 12 -73 22 -149 36 -275 3 -33 8 -193 10 -355 5 -371 7 -385
70 -514 51 -106 124 -189 219 -252 57 -38 163 -83 215 -92 19 -4 919 -7 2000
-7 1840 0 1969 1 2023 17 120 37 252 125 313 209 16 22 34 46 40 53 13 14 70
135 79 166 0 3 4 14 7 25 16 48 20 117 23 385 1 157 6 314 9 350 10 97 16 151
21 185 3 17 7 48 10 69 3 21 7 48 10 60 3 12 7 33 10 49 12 65 17 86 37 157
36 132 118 330 140 338 4 2 8 8 8 13 0 19 79 117 135 167 31 27 85 64 119 81
64 31 183 64 198 55 5 -3 7 70 6 162 l-3 167 -30 4 c-16 2 -45 9 -63 14 -18 6
-39 12 -46 13 -6 1 -38 15 -70 31 -110 56 -213 170 -299 332 -15 29 -28 55
-27 58 0 3 -7 21 -15 41 -40 97 -93 305 -111 439 -3 28 -8 59 -10 70 -3 11 -7
49 -10 85 -3 36 -8 76 -11 90 -2 14 -6 167 -8 340 -3 173 -6 324 -9 335 -19
89 -69 216 -87 223 -5 2 -9 9 -9 16 0 23 -77 109 -155 173 -41 33 -132 82
-166 88 -10 2 -23 6 -27 9 -5 3 -22 8 -38 13 -16 4 -911 9 -1989 10 -1834 1
-1965 0 -2031 -16z m2417 -1194 c109 -22 182 -47 264 -91 76 -41 80 -44 154
-117 73 -72 80 -82 117 -159 40 -82 49 -113 59 -205 11 -101 12 -115 7 -120
-3 -3 -6 -20 -7 -38 -2 -57 -51 -207 -67 -207 -5 0 -8 -6 -8 -14 0 -13 -58
-94 -90 -125 -67 -68 -192 -144 -254 -155 -79 -14 -87 -31 -18 -39 189 -23
393 -155 489 -315 63 -105 86 -194 87 -332 0 -63 -3 -133 -7 -155 -8 -45 -49
-177 -57 -185 -3 -3 -12 -18 -20 -35 -41 -84 -132 -179 -234 -245 -38 -25 -72
-45 -75 -45 -3 -1 -28 -11 -56 -24 -63 -28 -226 -68 -319 -78 -73 -7 -1188 -9
-1218 -1 -28 7 -56 38 -64 72 -4 17 -7 596 -7 1286 0 1057 2 1261 14 1285 29
62 18 61 650 60 494 -1 586 -4 660 -18z"/>
<path d="M2768 4212 l-58 -3 0 -403 0 -404 318 3 c174 2 331 6 347 9 62 14
141 38 170 54 16 9 33 15 37 14 15 -4 134 124 153 163 26 54 26 57 31 161 5
119 -18 192 -83 264 -67 75 -160 118 -297 137 -43 6 -526 10 -618 5z"/>
<path d="M2714 3081 c-2 -2 -4 -204 -4 -448 0 -415 1 -443 18 -444 58 -3 664
2 697 5 320 34 481 193 470 464 -8 219 -126 344 -380 401 -82 19 -250 24 -615
20 -8 0 -53 1 -98 3 -46 2 -86 1 -88 -1z"/>
</g>
</svg>
